@startuml
'https://plantuml.com/class-diagram

hide methods


rectangle "Job Opening Application" #aaccbb {
    class Application<<Aggregate Root>><<Entity>>{}
    class ApplicationId<<Identity>><<Value Object>>{}
    class AttachedEmail<<Value Object>>{}
    class AttachedFile<<Value Object>>{}
    class ApplicatorData<<Value Object>>{}
    class ApplicationStatus<<Value Object>>{}
    class ApplicationGrade<<Value Object>>{}
}


rectangle candidate #aabbcc{
    class Candidate<<Aggregate Root>><<Entity>>{}
    class CandidateId<<Identity>><<Value Object>>{}
    class CurriculumVitae<<Value Object>>{}
}

Candidate "1"--> "1" CandidateId
Candidate "1"--> "1" CurriculumVitae


Application "1" --> "1" ApplicationId
Application "1" --> "1" AttachedEmail
Application "1" --> "1" AttachedFile
Application "1" --> "1" ApplicatorData
Application "1" -> "1" Candidate : submitted by
Application "1" --> "1" ApplicationStatus
Application "1" --> "1" ApplicationGrade






@enduml