@startuml
'https://plantuml.com/class-diagram

hide methods

rectangle candidate #aabbcc{
    class Candidate<<Aggregate Root>><<Entity>>{}
    class CurriculumVitae<<Value Object>>{}
    class PhoneNumber <<Value Object>>


}


rectangle customer #bbaacc{
    class Customer <<Aggregate Root>><<Entity>>{}
    class CustomerId<<Identity>><<Value Object>>{}
}





rectangle "Shared Objects" {

    class Email <<Value Object>>
    class Username <<Value Object>>
    class Address <<Value Object>>
    class Name<<Value Object>>{}

}





rectangle "Job Opening" #bbccaa {

    class JobOpening<<Aggregate Root>><<Entity>>{}

    class JobReference<<Identity>><<Value Object>>{}

    class TitleOrFunction<<Value Object>>{}

    enum ContractType<<Enumerated>><<Value Object>>{
        FULL_TIME
        PART_TIME
    }

    enum Mode<<Enumerated>><<Value Object>>{
        REMOTE
        ON-SITE
        HYBRID
        }


    class VacanciesNumber<<Value Object>>{}

    class Description<<Value Object>>{}
'
'    class PhaseDates<<Entity>>{}
'    enum PhaseType<<Enumerated>><<Value Object>>{
'                APPLICATION
'                SCREENING
'                INTERVIEWS
'                ANALYSIS
'                RESULT
'            }
'     JobOpening "1" --> "0..1" PhaseDates
'     PhaseDates "1" --> "1" PhaseType
}


rectangle "Job Opening Application" #aaccbb {

    class Application<<Aggregate Root>><<Entity>>{}

    class ApplicationId<<Identity>><<Value Object>>{}

    class AttachedEmail<<Value Object>>{}

    class AttachedFile<<Value Object>>{}

    class ApplicatorData<<Value Object>>{}

    class ApplicationStatus<<Value Object>>{}

    class ApplicationRank<<Value Object>>{}

'    Deviamos retirar o rank deste agregrado

}

rectangle "Job Opening Interview" #ccbbaa {
    class JobInterview <<Aggregate Root>><<Entity>>{}
    class JobInterviewId<<Identity>><<Value Object>>{}
    class InterviewDate<<Value Object>>{}
    class InterviewTime<<Value Object>>{}
    class Score<<Value Object>>{}
    class InterviewResult<<Value Object>>{}
}

rectangle "User" #ccbbcc {
    class SystemUser <<Aggregate Root>><<Entity>>{}
    class Password<<Value Object>>{}
    class BaseRole<<Value Object>>{}

    SystemUser "1" --> "1" Email: has
    SystemUser "1" --> "1" Username: has
    SystemUser "1" -up> "1" Password
    SystemUser "1" --> "1" Name
    SystemUser "1" -> "1" BaseRole
    Candidate "1" --|> "1" SystemUser
    Customer "1" --|> "1" SystemUser

}


rectangle " Notification " #ccbbcc {

    class Notification<<Aggregate Root>><<Entity>>{}
    class idNotification<<Identity>><<Value Object>>{}
    class userName<<Value Object>>{}
    class content<<Value Object>>{}
    class isSend<<Value Object>>{}

}


'
'rectangle "Filtering Strategy" #bbaacc {
'interface FilterStrategy{
'
'    +filter()
'    +criteria()
'    }
'
'    class Criteria <<Value Object>>{}
'
'    class FilterByDescription extends FilterStrategy{}
'    class FilterByDate extends FilterStrategy{}
'    class FilterByCode extends FilterStrategy {}
'}



rectangle "Job Opening Process" #ccbbcc{
    class JobOpeningProcess<<Aggregate Root>><<Entity>>{}
    class JobOpeningProcessId<<Identity>><<Value Object>>{}
    class Phase<<Entity>>{
        }
    enum PhaseType<<Enumerated>><<Value Object>>{
        APPLICATION
        SCREENING
        INTERVIEWS
        ANALYSIS
        RESULT
    }
}





rectangle "PlugIn" #bababa {
    class Plugin <<Aggregate Root>><<Entity>>{}
    class PluginType<<Value Object>>{}
    class PluginId<<Identity>><<Value Object>>{}
    class PluginDescription<<Value Object>>{}
    class JarFile<<Value Object>>{}
    class Requirement<<Resource>>{}
    class InterviewModel<<Resource>>{}
}

Plugin "1" --> "1" PluginType
Plugin "1" -right-> "1" PluginId
Plugin "1" --> "1" PluginDescription
Plugin "1" --> "1" JarFile


JobReference "1" <-up- "1" JobOpening
TitleOrFunction "1" <-up- "1" JobOpening
ContractType "1" <-- "1" JobOpening
Mode "1" <-- "1" JobOpening
Description "1" <-up- "1" JobOpening
VacanciesNumber "1" <-up- "1" JobOpening

JobOpening "*" -> "1" Customer : set by


Application "1" --> "1" ApplicationId
Application "1" --> "1" AttachedEmail
Application "1" --> "1" AttachedFile
Application "1" --> "1" ApplicatorData
Application "*" ---> "1" JobOpening : submitted for
Application "1" -down-> "1" Candidate : submitted by
Application "1" --> "1" ApplicationStatus

Customer "1" --> "1" CustomerId

''InterviewModel "1" -left-> "1" InterviewModelName : has
''InterviewModel "1" -down--> "*" Question : contains
''Question <|-- InterviewModel : belongs to


PhoneNumber "1" <-- "1" Candidate


JobInterview "1" -up-> "1" JobInterviewId
JobInterview "1" -up-> "1" InterviewDate
JobInterview "1" --> "1" InterviewTime
JobInterview "1" --> "0..1" Score
JobInterview "1" --> "1" InterviewResult

JobOpening "1" --> "1..*" "Plugin"

'
'Criteria "1" -up-> "1" FilterByCode
'Criteria "1" -up-> "1" FilterByDate
'Criteria "1" -up-> "1" FilterByDescription


Candidate -right-> "1" CurriculumVitae

Application "1" -up-> "1" JobInterview
Application "1" -up-> "0..1" ApplicationRank

JarFile "1" +..> "*" InterviewModel : interviewModels
JarFile "1" +..> "*" Requirement : requirements

JobOpeningProcess "1" -left-> "1" JobOpeningProcessId
JobOpening "1" -----> "*" JobOpeningProcess : has
JobOpening "1" --> "1" Address

JobOpeningProcess "1" --> "1" Phase

Phase "1" --> "1" PhaseType

Application "1" --> "*" Notification : has

Notification "1" --> "1" idNotification
Notification "1" --> "1" userName
Notification "1" --> "1" content
Notification "1" --> "1" isSend

JobOpening "1" -----> "*" Notification : has



@enduml