@startuml

Title  US3002

rectangle "Job Opening" #bbccaa {

    class JobOpening<<Aggregate Root>><<Entity>>{}

    class JobReference<<Identity>><<Value Object>>{}

    class TitleOrFunction<<Value Object>>{}

    enum ContractType<<Enumerated>><<Value Object>>{}

    class Mode<<Enumerated>><<Value Object>>{}


    class VacanciesNumber<<Value Object>>{}

    class Description<<Value Object>>{}

    class Phase <<Value Object>>{}
    ''Maybe go to Interview Model

}
rectangle customer #bbaacc{
    class Customer <<Aggregate Root>><<Entity>>{}
    class CustomerId<<Identity>><<Value Object>>{}
}

JobOpening "*" -> "1" Customer : set by
Customer "1" --> "1" CustomerId




JobReference "1" <-up- "1" JobOpening
TitleOrFunction "1" <-up- "1" JobOpening
ContractType "1" <-- "1" JobOpening
Mode "1" <-- "1" JobOpening
Description "1" <-up- "1" JobOpening
VacanciesNumber "1" <-up- "1" JobOpening
Phase "1" <-down- "1" JobOpening
@enduml