@startuml
'https://plantuml.com/class-diagram

hide methods

rectangle "PlugIn" #bababa {
    class Plugin <<Aggregate Root>><<Entity>>{}
    class PluginType<<Value Object>>{}
    class PluginId<<Identity>><<Value Object>>{}
    class PluginDescription<<Value Object>>{}
    class JarFile<<Value Object>>{}
    class Requirement<<Resource>>{}
    class InterviewModel<<Resource>>{}
}



Plugin "1" --> "1" PluginType
Plugin "1" -right-> "1" PluginId
Plugin "1" --> "1" PluginDescription
Plugin "1" --> "1" JarFile

JarFile "1" +..> "*" InterviewModel : interviewModels
JarFile "1" +..> "*" Requirement : requirements

rectangle "Job Opening Application" #aaccbb {

    class Application<<Aggregate Root>><<Entity>>{}

    class ApplicationId<<Identity>><<Value Object>>{}

    class AttachedEmail<<Value Object>>{}

    class AttachedFile<<Value Object>>{}

    class ApplicatorData<<Value Object>>{}

    class ApplicationStatus<<Value Object>>{}

}

Application "1" --> "1" ApplicationId
Application "1" --> "1" AttachedEmail
Application "1" --> "1" AttachedFile
Application "1" --> "1" ApplicatorData
Application "1" --> "1" ApplicationStatus


rectangle "Job Opening" #bbccaa {

    class JobOpening<<Aggregate Root>><<Entity>>{}

    class JobReference<<Identity>><<Value Object>>{}

    class TitleOrFunction<<Value Object>>{}

    enum ContractType<<Enumerated>><<Value Object>>{
        FULL_TIME
        PART_TIME
    }

    enum Mode<<Enumerated>><<Value Object>>{
        REMOTE
        ON-SITE
        HYBRID
        }


    class VacanciesNumber<<Value Object>>{}

    class Description<<Value Object>>{}
'
'    class PhaseDates<<Entity>>{}
'    enum PhaseType<<Enumerated>><<Value Object>>{
'                APPLICATION
'                SCREENING
'                INTERVIEWS
'                ANALYSIS
'                RESULT
'            }
'     JobOpening "1" --> "0..1" PhaseDates
'     PhaseDates "1" --> "1" PhaseType
}

JobReference "1" <-up- "1" JobOpening
TitleOrFunction "1" <-up- "1" JobOpening
ContractType "1" <-- "1" JobOpening
Mode "1" <-- "1" JobOpening
Description "1" <-up- "1" JobOpening
VacanciesNumber "1" <-up- "1" JobOpening



rectangle candidate #aabbcc{
    class Candidate<<Aggregate Root>><<Entity>>{}
    class CurriculumVitae<<Value Object>>{}
    class PhoneNumber <<Value Object>>

}

Candidate "1" --> "1" PhoneNumber
Candidate -right-> "1" CurriculumVitae
Application "1" -down-> "1" Candidate : submitted by
Application "*" ---> "1" JobOpening : submitted for
JobOpening "1" --> "1..*" "Plugin"


@enduml